<svg width="354" height="42" viewBox="0 0 354 42" fill="none" xmlns="http://www.w3.org/2000/svg">
<g clip-path="url(#clip0_1_158)">
<path fill-rule="evenodd" clip-rule="evenodd" d="M13.1947 26.3359L37.5006 12.4906C34.9287 10.4905 31.6822 9.29707 28.1532 9.29707C19.8069 9.29707 13.0409 15.9726 13.0409 24.2072C13.0409 24.9296 13.093 25.6399 13.1936 26.3348L0 33.8503L5.5401 43.3175L18.6871 35.8287C15.7745 33.5163 13.7492 30.1602 13.1947 26.3359ZM43.0912 21.9276C42.4982 18.1127 40.4399 14.7741 37.5008 12.4888L50.6479 5L56.1879 14.4673L43.0912 21.9276ZM28.1532 39.1173C24.5697 39.1173 21.2775 37.8867 18.687 35.8305L43.0904 21.9297C43.2057 22.6722 43.2657 23.4328 43.2657 24.2072C43.2657 32.4417 36.4996 39.1173 28.1532 39.1173Z" fill="#FDD400"/>
<path d="M84.3829 9.6875H98.4159V12.2835H84.3829C83.6589 12.2835 83.1715 12.4208 82.9211 12.6956C82.6704 12.9703 82.5452 13.4785 82.5452 14.2202V20.6072C82.5452 21.5137 82.6983 22.1043 83.0045 22.379C83.3388 22.6537 83.7981 22.7911 84.3829 22.7911H93.0282C95.4226 22.7911 97.0514 23.4916 97.9148 24.8926C98.2767 25.4969 98.4854 26.1425 98.5411 26.8293C98.5969 27.5161 98.6248 28.1754 98.6248 28.8072V33.6282C98.6248 35.0842 98.1234 36.2656 97.1211 37.1722C96.1189 38.0785 94.8241 38.5319 93.2371 38.5319H80.1227V35.936H93.2371C94.1002 35.936 94.7684 35.7299 95.2416 35.3178C95.743 34.9056 95.9934 34.3424 95.9934 33.6282V28.8072C95.9934 28.1754 95.9795 27.6534 95.9516 27.2413C95.924 26.8018 95.8124 26.4447 95.6175 26.17C95.4226 25.8953 95.1164 25.703 94.6987 25.5931C94.3091 25.4557 93.7522 25.3871 93.0282 25.3871H84.3829C82.9629 25.3871 81.8631 24.975 81.0834 24.1509C80.3037 23.3268 79.9141 22.1455 79.9141 20.6072V14.2202C79.9141 13.2312 80.0672 12.4483 80.3734 11.8714C80.6796 11.2671 81.0555 10.8001 81.5011 10.4704C81.9743 10.1408 82.4615 9.93474 82.9629 9.85233C83.4919 9.74244 83.9651 9.6875 84.3829 9.6875ZM104.547 17.9287V19.7006C105.271 19.2611 106.037 18.8628 106.845 18.5056C107.68 18.121 108.418 17.9287 109.058 17.9287H115.782C116.2 17.9287 116.659 17.9837 117.16 18.0936C117.662 18.176 118.135 18.382 118.58 18.7117C119.054 19.0138 119.444 19.4671 119.75 20.0715C120.056 20.6483 120.209 21.4175 120.209 22.379V33.5459C120.209 34.5347 120.056 35.3315 119.75 35.936C119.444 36.5127 119.054 36.9661 118.58 37.2957C118.135 37.5978 117.662 37.8039 117.16 37.9137C116.659 37.9962 116.2 38.0374 115.782 38.0374H109.058C108.418 38.0374 107.68 37.8589 106.845 37.5018C106.037 37.1171 105.271 36.705 104.547 36.2656V46.7732H101.958V17.9287H104.547ZM109.058 20.4835C108.696 20.4835 108.07 20.717 107.179 21.184C106.288 21.6236 105.411 22.1318 104.547 22.7087V33.2576C104.965 33.5322 105.397 33.8067 105.842 34.0816C106.315 34.3562 106.761 34.6035 107.179 34.8233C107.596 35.0157 107.972 35.1805 108.306 35.3178C108.641 35.4276 108.891 35.4826 109.058 35.4826H115.782C116.506 35.4826 116.993 35.3453 117.244 35.0704C117.495 34.7958 117.62 34.2877 117.62 33.5459V22.379C117.62 21.6648 117.495 21.1703 117.244 20.8956C116.993 20.6209 116.506 20.4835 115.782 20.4835H109.058ZM128.524 26.1288H139.591V26.0876C139.591 24.6866 139.452 23.6152 139.174 22.8735C138.923 22.1318 138.603 21.5824 138.213 21.2252C137.851 20.8681 137.475 20.6621 137.085 20.6072C136.696 20.5522 136.389 20.5247 136.167 20.5247H124.556V17.9287H136.167C136.723 17.9287 137.35 18.0249 138.046 18.2172C138.77 18.382 139.438 18.7529 140.051 19.3297C140.691 19.9066 141.22 20.7308 141.638 21.8021C142.056 22.8735 142.264 24.302 142.264 26.0876L142.223 38.5319L139.591 38.4906V36.7187C138.84 37.1584 138.032 37.5703 137.169 37.9549C136.334 38.3396 135.596 38.5319 134.955 38.5319H128.064C127.647 38.5319 127.173 38.4906 126.644 38.4083C126.143 38.2983 125.656 38.0785 125.182 37.7489C124.737 37.4192 124.347 36.9523 124.013 36.3479C123.707 35.7437 123.554 34.9469 123.554 33.958V30.4966C123.554 30.167 123.595 29.7549 123.679 29.2605C123.79 28.766 124.013 28.2852 124.347 27.8182C124.709 27.3512 125.21 26.9529 125.851 26.6232C126.519 26.2936 127.41 26.1288 128.524 26.1288ZM126.185 30.4966V33.958C126.185 34.7271 126.31 35.249 126.561 35.5238C126.839 35.7984 127.34 35.936 128.064 35.936H134.955C135.345 35.936 135.986 35.7024 136.877 35.2352C137.796 34.7408 138.7 34.2051 139.591 33.6282V28.7248H128.524C127.995 28.7248 127.577 28.7797 127.271 28.8896C126.964 28.972 126.728 29.0956 126.561 29.2605C126.394 29.4253 126.282 29.6176 126.227 29.8374C126.199 30.0297 126.185 30.2495 126.185 30.4966ZM145.557 33.2986V23.0383C145.557 22.0494 145.766 21.2252 146.183 20.5659C146.601 19.9066 147.116 19.3847 147.729 19.0001C148.369 18.6155 149.037 18.3408 149.733 18.176C150.457 18.0112 151.098 17.9287 151.655 17.9287H163.265V20.5247H151.655C151.432 20.5247 151.126 20.5522 150.736 20.6072C150.346 20.6346 149.956 20.7308 149.566 20.8956C149.204 21.0604 148.884 21.3076 148.606 21.6373C148.327 21.9669 148.188 22.434 148.188 23.0383V27.8182V33.2986C148.188 33.848 148.327 34.3014 148.606 34.6585C148.884 34.9882 149.204 35.249 149.566 35.4413C149.956 35.6336 150.346 35.7709 150.736 35.8534C151.126 35.9085 151.432 35.936 151.655 35.936H163.265V38.5319H151.655C151.098 38.5319 150.457 38.4356 149.733 38.2435C149.037 38.0512 148.369 37.7489 147.729 37.337C147.116 36.8973 146.601 36.3479 146.183 35.6886C145.766 35.0294 145.557 34.2326 145.557 33.2986ZM166.622 30.3731C166.622 29.3566 166.622 28.3539 166.622 27.365C166.65 26.3485 166.664 25.3321 166.664 24.3157C166.664 20.0577 169.086 17.9287 173.931 17.9287H180.78C181.198 17.9287 181.671 17.9837 182.2 18.0936C182.73 18.176 183.217 18.382 183.662 18.7117C184.136 19.0413 184.526 19.5083 184.832 20.1127C185.166 20.717 185.333 21.5137 185.333 22.5026V25.9639C185.333 26.2936 185.277 26.7057 185.166 27.2001C185.082 27.6946 184.86 28.1754 184.498 28.6423C184.164 29.1094 183.662 29.5077 182.994 29.8374C182.354 30.167 181.476 30.3318 180.363 30.3318L169.253 30.3731C169.253 31.774 169.379 32.8454 169.629 33.5872C169.908 34.3289 170.228 34.8781 170.59 35.2352C170.98 35.5924 171.37 35.7984 171.759 35.8534C172.149 35.9085 172.469 35.936 172.72 35.936H185.291V38.5319H172.72C172.163 38.5319 171.523 38.4356 170.799 38.2435C170.103 38.0512 169.434 37.6666 168.794 37.0896C168.181 36.5127 167.666 35.6886 167.248 34.6173C166.831 33.5459 166.622 32.1312 166.622 30.3731ZM180.363 27.7358C180.892 27.7358 181.309 27.6946 181.616 27.6122C181.922 27.5023 182.145 27.365 182.284 27.2001C182.451 27.0353 182.549 26.8568 182.576 26.6645C182.632 26.4447 182.66 26.2112 182.66 25.9639V22.5026C182.66 21.7334 182.521 21.2115 182.242 20.9368C181.992 20.6621 181.504 20.5247 180.78 20.5247H173.931C173.319 20.5247 172.734 20.5659 172.177 20.6483C171.62 20.7033 171.119 20.8544 170.673 21.1016C170.256 21.3489 169.922 21.7334 169.671 22.2554C169.42 22.7499 169.295 23.4366 169.295 24.3157V27.7358H180.363ZM188.666 15.786C188.666 14.7971 188.847 13.9317 189.209 13.19C189.571 12.4208 190.044 11.789 190.629 11.2946C191.214 10.7726 191.868 10.3743 192.592 10.0996C193.316 9.82485 194.026 9.6875 194.722 9.6875H206.208V12.2835H194.722C194.36 12.2835 193.971 12.3659 193.553 12.5307C193.163 12.6681 192.801 12.8879 192.467 13.19C192.133 13.4647 191.854 13.8218 191.632 14.2614C191.409 14.7009 191.297 15.2091 191.297 15.786V21.9669V26.2524V32.5981C191.297 33.3123 191.395 33.8893 191.59 34.3289C191.813 34.7683 192.091 35.1117 192.425 35.359C192.759 35.5789 193.121 35.7299 193.511 35.8122C193.929 35.8947 194.332 35.936 194.722 35.936H206.208V38.5319H194.722C194.026 38.5319 193.316 38.4356 192.592 38.2435C191.868 38.0237 191.214 37.6803 190.629 37.2132C190.044 36.7463 189.571 36.1418 189.209 35.4003C188.847 34.631 188.666 33.697 188.666 32.5981C188.666 31.8016 188.666 31.0185 188.666 30.2495C188.666 29.4802 188.666 28.8072 188.666 28.2303C188.666 27.6259 188.666 27.1452 188.666 26.7881C188.694 26.4035 188.708 26.2112 188.708 26.2112V21.9669C188.708 21.9669 188.694 21.8021 188.666 21.4725C188.666 21.1154 188.666 20.6483 188.666 20.0715C188.666 19.4946 188.666 18.8353 188.666 18.0936C188.666 17.3519 188.666 16.5827 188.666 15.786ZM209.568 33.958V22.5026C209.568 21.5137 209.722 20.717 210.028 20.1127C210.362 19.5083 210.752 19.0413 211.197 18.7117C211.671 18.382 212.158 18.176 212.659 18.0936C213.188 17.9837 213.661 17.9287 214.079 17.9287H223.727C224.144 17.9287 224.618 17.9837 225.147 18.0936C225.676 18.176 226.163 18.382 226.608 18.7117C227.082 19.0413 227.472 19.5083 227.778 20.1127C228.112 20.717 228.279 21.5137 228.279 22.5026V33.958C228.279 34.9469 228.112 35.7437 227.778 36.3479C227.472 36.9523 227.082 37.4192 226.608 37.7489C226.163 38.0785 225.676 38.2983 225.147 38.4083C224.618 38.4906 224.144 38.5319 223.727 38.5319H214.079C213.661 38.5319 213.188 38.4906 212.659 38.4083C212.158 38.2983 211.671 38.0785 211.197 37.7489C210.752 37.4192 210.362 36.9523 210.028 36.3479C209.722 35.7437 209.568 34.9469 209.568 33.958ZM212.2 22.5026V33.958C212.2 34.7271 212.325 35.249 212.575 35.5238C212.854 35.7984 213.355 35.936 214.079 35.936H223.727C224.451 35.936 224.938 35.7984 225.188 35.5238C225.467 35.249 225.606 34.7271 225.606 33.958V22.5026C225.606 21.7334 225.467 21.2115 225.188 20.9368C224.938 20.6621 224.451 20.5247 223.727 20.5247H214.079C213.355 20.5247 212.854 20.6621 212.575 20.9368C212.325 21.2115 212.2 21.7334 212.2 22.5026ZM231.613 17.9287H234.244V19.7418C234.995 19.3023 235.789 18.8902 236.624 18.5056C237.487 18.121 238.239 17.9287 238.88 17.9287H240.926C241.539 17.9287 242.221 18.0524 242.973 18.2996C243.752 18.5468 244.379 19.0688 244.852 19.8654C245.604 19.3984 246.425 18.9589 247.316 18.5468C248.207 18.1348 248.988 17.9287 249.655 17.9287H251.701C252.12 17.9287 252.593 17.9837 253.12 18.0936C253.651 18.2035 254.139 18.4232 254.584 18.7529C255.057 19.055 255.446 19.5083 255.752 20.1127C256.058 20.717 256.212 21.5137 256.212 22.5026V38.5319H253.581V22.5026C253.581 21.7609 253.442 21.2527 253.163 20.978C252.914 20.7033 252.426 20.5659 251.701 20.5659H249.655C249.294 20.5659 248.708 20.7582 247.901 21.1428C247.093 21.5274 246.286 21.9944 245.479 22.5438V38.5319H242.806V22.5026C242.806 21.7609 242.666 21.2527 242.388 20.978C242.137 20.7033 241.65 20.5659 240.926 20.5659H238.88C238.49 20.5659 237.835 20.7994 236.917 21.2664C236.026 21.7334 235.135 22.2554 234.244 22.8323V38.5319H231.613V17.9287ZM262.16 17.9287V19.7006C262.884 19.2611 263.651 18.8628 264.457 18.5056C265.291 18.121 266.031 17.9287 266.67 17.9287H273.394C273.813 17.9287 274.271 17.9837 274.774 18.0936C275.274 18.176 275.747 18.382 276.193 18.7117C276.666 19.0138 277.056 19.4671 277.363 20.0715C277.669 20.6483 277.823 21.4175 277.823 22.379V33.5459C277.823 34.5347 277.669 35.3315 277.363 35.936C277.056 36.5127 276.666 36.9661 276.193 37.2957C275.747 37.5978 275.274 37.8039 274.774 37.9137C274.271 37.9962 273.813 38.0374 273.394 38.0374H266.67C266.031 38.0374 265.291 37.8589 264.457 37.5018C263.651 37.1171 262.884 36.705 262.16 36.2656V46.7732H259.571V17.9287H262.16ZM266.67 20.4835C266.309 20.4835 265.682 20.717 264.791 21.184C263.9 21.6236 263.023 22.1318 262.16 22.7087V33.2576C262.578 33.5322 263.008 33.8067 263.454 34.0816C263.927 34.3562 264.373 34.6035 264.791 34.8233C265.209 35.0157 265.585 35.1805 265.919 35.3178C266.252 35.4276 266.504 35.4826 266.67 35.4826H273.394C274.119 35.4826 274.607 35.3453 274.856 35.0704C275.107 34.7958 275.232 34.2877 275.232 33.5459V22.379C275.232 21.6648 275.107 21.1703 274.856 20.8956C274.607 20.6209 274.119 20.4835 273.394 20.4835H266.67ZM281.167 17.9287H283.798V33.958C283.798 34.6996 283.922 35.208 284.174 35.4826C284.453 35.7574 284.953 35.8947 285.677 35.8947H292.568C292.735 35.8947 292.986 35.8397 293.32 35.7299C293.681 35.5924 294.072 35.4138 294.49 35.1942C294.906 34.9744 295.351 34.7271 295.824 34.4525C296.3 34.1776 296.758 33.903 297.204 33.6282V17.9287H299.835V38.5319H297.204V36.7187C296.452 37.1584 295.645 37.5703 294.781 37.9549C293.947 38.312 293.208 38.4906 292.568 38.4906H285.677C285.259 38.4906 284.786 38.4493 284.256 38.3671C283.756 38.257 283.268 38.0374 282.795 37.7078C282.349 37.378 281.961 36.9248 281.625 36.3479C281.318 35.7437 281.167 34.9469 281.167 33.958V17.9287ZM309.267 17.9287C308.655 17.4068 308.195 16.8436 307.888 16.2393C307.582 15.6349 307.361 15.058 307.221 14.5086C307.082 13.8768 307.012 13.245 307.012 12.6131H309.601C309.601 13.1351 309.656 13.657 309.768 14.179C309.88 14.591 310.047 15.0306 310.271 15.4976C310.492 15.9646 310.841 16.3767 311.314 16.7337C311.62 16.981 311.981 17.187 312.399 17.3519C312.845 17.4892 313.29 17.5991 313.736 17.6815C314.182 17.7639 314.612 17.8326 315.031 17.8875C315.449 17.915 315.825 17.9287 316.158 17.9287H317.077V20.5247H309.643C309.643 21.1016 309.628 21.8296 309.601 22.7087C309.601 23.5602 309.601 24.4668 309.601 25.4283C309.601 26.3623 309.601 27.2826 309.601 28.1891C309.601 29.0956 309.601 29.8511 309.601 30.4553C309.601 31.8291 309.726 32.8867 309.977 33.6282C310.256 34.3699 310.577 34.9194 310.938 35.2765C311.329 35.6061 311.717 35.7984 312.108 35.8534C312.496 35.9085 312.802 35.936 313.027 35.936H317.077V38.5319H313.027C312.469 38.5319 311.842 38.4493 311.147 38.2845C310.45 38.0922 309.795 37.7078 309.183 37.1309C308.57 36.5539 308.055 35.7437 307.639 34.6996C307.221 33.6282 307.012 32.2134 307.012 30.4553V20.5247H303.168V17.9287H309.267ZM320.4 30.3731C320.4 29.3566 320.4 28.3539 320.4 27.365C320.428 26.3485 320.443 25.3321 320.443 24.3157C320.443 20.0577 322.865 17.9287 327.709 17.9287H334.56C334.976 17.9287 335.449 17.9837 335.979 18.0936C336.507 18.176 336.995 18.382 337.441 18.7117C337.914 19.0413 338.304 19.5083 338.611 20.1127C338.944 20.717 339.111 21.5137 339.111 22.5026V25.9639C339.111 26.2936 339.056 26.7057 338.944 27.2001C338.862 27.6946 338.638 28.1754 338.277 28.6423C337.941 29.1094 337.441 29.5077 336.773 29.8374C336.131 30.167 335.255 30.3318 334.142 30.3318L323.032 30.3731C323.032 31.774 323.156 32.8454 323.408 33.5872C323.686 34.3289 324.007 34.8781 324.368 35.2352C324.759 35.5924 325.148 35.7984 325.539 35.8534C325.927 35.9085 326.248 35.936 326.499 35.936H339.069V38.5319H326.499C325.942 38.5319 325.302 38.4356 324.578 38.2435C323.881 38.0512 323.213 37.6666 322.574 37.0896C321.961 36.5127 321.446 35.6886 321.028 34.6173C320.609 33.5459 320.4 32.1312 320.4 30.3731ZM334.142 27.7358C334.67 27.7358 335.088 27.6946 335.394 27.6122C335.7 27.5023 335.924 27.365 336.064 27.2001C336.231 27.0353 336.328 26.8568 336.355 26.6645C336.41 26.4447 336.437 26.2112 336.437 25.9639V22.5026C336.437 21.7334 336.3 21.2115 336.022 20.9368C335.77 20.6621 335.282 20.5247 334.56 20.5247H327.709C327.097 20.5247 326.512 20.5659 325.957 20.6483C325.399 20.7033 324.899 20.8544 324.453 21.1016C324.035 21.3489 323.701 21.7334 323.45 22.2554C323.198 22.7499 323.074 23.4366 323.074 24.3157V27.7358H334.142ZM342.444 38.5319V17.9287H345.076V19.4122C345.773 19.0276 346.482 18.6842 347.207 18.382C347.958 18.0798 348.613 17.9287 349.168 17.9287H352.678V20.5247H349.168C348.835 20.5247 348.265 20.717 347.456 21.1016C346.676 21.4862 345.885 21.9395 345.076 22.4614V38.5319H342.444Z" fill="white"/>
</g>
<defs>
<clipPath id="clip0_1_158">
<rect width="354" height="42" fill="white"/>
</clipPath>
</defs>
</svg>
